<svg width="63" height="60" viewBox="0 0 63 60" fill="none" xmlns="http://www.w3.org/2000/svg">
<path d="M39.3674 33.75H23.6326C23.7156 38.6721 24.4767 43.5639 25.8975 48.2998L29.3877 59.9336C30.0858 59.9776 30.7902 60 31.5 60C32.2099 60 32.9142 59.9776 33.6124 59.9336L37.1025 48.2998C38.5233 43.5639 39.2844 38.6721 39.3674 33.75Z" fill="#717332"/>
<path d="M42.3285 58.1804C53.2077 54.3876 61.2776 45.0435 62.7563 33.75H47.2433C47.1597 39.369 46.2963 44.9542 44.6745 50.3602L42.3285 58.1804Z" fill="#717332"/>
<path d="M47.2433 26.25L62.7563 26.25C61.2776 14.9565 53.2077 5.6124 42.3285 1.81959L44.6745 9.63982C46.2963 15.0457 47.1597 20.631 47.2433 26.25Z" fill="#717332"/>
<path d="M33.6124 0.0663868C32.9142 0.022362 32.2099 0 31.5 0C30.7902 0 30.0858 0.0223617 29.3877 0.0663859L25.8975 11.7002C24.4767 16.4361 23.7156 21.3279 23.6326 26.25L39.3674 26.25C39.2844 21.3279 38.5233 16.4361 37.1025 11.7002L33.6124 0.0663868Z" fill="#717332"/>
<path d="M18.3255 50.3602L20.6716 58.1804C9.79233 54.3876 1.72241 45.0435 0.243713 33.75H15.7567C15.8403 39.369 16.7037 44.9543 18.3255 50.3602Z" fill="#717332"/>
<path d="M15.7567 26.25H0.243713C1.72241 14.9565 9.79233 5.61239 20.6716 1.81958L18.3255 9.63982C16.7037 15.0457 15.8403 20.631 15.7567 26.25Z" fill="#717332"/>
</svg>
