<svg width="18" height="20" viewBox="0 0 18 20" fill="none" xmlns="http://www.w3.org/2000/svg">
<path fill-rule="evenodd" clip-rule="evenodd" d="M15.8852 10.4771C15.9199 10.1797 15.943 9.8704 15.943 9.54918C15.943 9.22796 15.9199 8.91864 15.8736 8.62121L17.8292 7.0508C18.0028 6.90804 18.0491 6.6463 17.9449 6.44406L16.0935 3.14858C15.9777 2.93443 15.7347 2.86305 15.5264 2.93443L13.2237 3.88619C12.7377 3.50549 12.2285 3.19617 11.6615 2.95823L11.3143 0.436054C11.2796 0.198114 11.0829 0.0315552 10.8515 0.0315552H7.14853C6.91709 0.0315552 6.73195 0.198114 6.69723 0.436054L6.35008 2.95823C5.78307 3.19617 5.26234 3.51739 4.7879 3.88619L2.48513 2.93443C2.27684 2.85115 2.03384 2.93443 1.91812 3.14858L0.0666476 6.44406C-0.0490694 6.6582 -0.00278261 6.90804 0.182365 7.0508L2.13798 8.62121C2.0917 8.91864 2.05698 9.23986 2.05698 9.54918C2.05698 9.8585 2.08012 10.1797 2.12641 10.4771L0.170793 12.0476C-0.00278263 12.1903 -0.0490694 12.4521 0.0550759 12.6543L1.90655 15.9498C2.02226 16.1639 2.26527 16.2353 2.47356 16.1639L4.77633 15.2122C5.26234 15.5929 5.7715 15.9022 6.33851 16.1401L6.68566 18.6623C6.73195 18.9002 6.91709 19.0668 7.14853 19.0668H10.8515C11.0829 19.0668 11.2796 18.9002 11.3028 18.6623L11.6499 16.1401C12.2169 15.9022 12.7377 15.581 13.2121 15.2122L15.5149 16.1639C15.7232 16.2472 15.9662 16.1639 16.0819 15.9498L17.9334 12.6543C18.0491 12.4402 18.0028 12.1903 17.8176 12.0476L15.8852 10.4771ZM9 13.1183C7.09068 13.1183 5.5285 11.5122 5.5285 9.54919C5.5285 7.58618 7.09068 5.98008 9 5.98008C10.9093 5.98008 12.4715 7.58618 12.4715 9.54919C12.4715 11.5122 10.9093 13.1183 9 13.1183Z" fill="white" fill-opacity="0.6"/>
</svg>
